<svg xmlns="http://www.w3.org/2000/svg" xmlns:xlink="http://www.w3.org/1999/xlink" version="1.1" x="0px" y="0px" viewBox="0 0 48 60" style="enable-background:new 0 0 48 48;" xml:space="preserve"><path d="M42,31h-1v2h-1v2h-1v1h-1v1h-1v1h-1v1h-1v1h-1h0v-9h-1v-2h-1v-1h-2v-2h1v-2h1v-6h-1v-2h-1v-1h-1v-1h-2v-1h-6v1h-2v1h-1v1h-1  v2h-1v6h1v2h1v2h-2v1h-1v2h-1v9h-1v-1h-1v-1h-1v-1h-1v-1H9v-1H8v-2H7v-2H6v-3H5v-4h1v1h2v-2H7v-1H6v-1H5v-1H3v1H2v1H1v1H0v2h2v-1h1  v5h1v3h1v2h1v2h1v1h1v1h1v1h1v1h1v1h1v1h2h0v1h2v1h3v1h10v-1h3v-1h2v-1h2v-1h1v-1h1v-1h1v-1h1v-1h1v-1h1v-2h1v-2h1v-2h-2V31z M18,18  h1v-1h1v-1h1v-1h6v1h1v1h1v1h1v6h-1v1h-1v1h-1v1h-6v-1h-1v-1h-1v-1h-1V18z M32,41h-1v1h-3v1h-8v-1h-3v-1h-1h0V31h1v-1h1v-1h12v1h1v1  h1V41z M48,23v2h-1v1h-1v1h-1v1h-2v-1h-1v-1h-1v-1h-1v-2h2v1h1v-4h-1v-3h-1v-2h-1v-2h-1v-1h-1v-1h-1v-1h-1V9h-1V8h-2V7h-2V6h-3V5h-8  v1h-3v1h-2v1h-2v1h-1v1h-1v1h-1v1H9v1H8v2H7v2H6v1H4v-2h1v-2h1v-2h1v-1h1v-1h1V9h1V8h1V7h1V6h2V5h2V4h3V3h10v1h3v1h2v1h2v1h1v1h1v1  h1v1h1v1h1v1h1v2h1v2h1v3h1v5h1v-1H48z"/><text x="0" y="63" fill="#000000" font-size="5px" font-weight="bold" font-family="'Helvetica Neue', Helvetica, Arial-Unicode, Arial, Sans-serif">Created by AbtoCreative</text><text x="0" y="68" fill="#000000" font-size="5px" font-weight="bold" font-family="'Helvetica Neue', Helvetica, Arial-Unicode, Arial, Sans-serif">from the Noun Project</text></svg>